/* XPM */
static char *_a28d7b4c4034919ca5831d10c08f895YD1ZNQa9rS4ZgaK4[] = {
/* columns rows colors chars-per-pixel */
"32 32 4 1 ",
"  c #4F546B",
". c #39314B",
"X c #827094",
"o c white",
/* pixels */
"  ..    ...             ..    ..",
"..  ....   .            .X....XX",
"         ..X.          .X    .  ",
"        .XX  .         .X   .   ",
"      ..X     .        .    .   ",
"     .XX      .        .    .   ",
"    ..X       ....     .    .   ",
"   .XX.       .XXX.....X    .   ",
"  .X   .      .      .X     .   ",
" .X     .     .       .    .X.. ",
".X      .    ...       . ..X   .",
".X     .X....  .       ..XX     ",
"X.     .XX     .X      .X       ",
" X.    .X      .X       .       ",
"   .   .X     .X.....   .       ",
"    .  .X     .X     ...X.      ",
"     ..X     .X          X.     ",
"   ..X.X    .X            .   ..",
". ..XX  .   .X.            ...  ",
"..XX     ...X             .XX   ",
".X       .XX   .        ..X     ",
".       .X      .    ...X.X     ",
".   .. .X        .... XXX.X     ",
".  .XX.X        .X        .     ",
" ..X  .X         .X        .    ",
".XX   .X         .         .    ",
".      .         .         .    ",
".       .       .          ..   ",
".        .......           .X. .",
".           X.XX..        .X  . ",
".           .     ..    ..X     ",
" .         .        ....XX      "
};
