/* XPM */
static char *_2f52ec9fecc4cadeb839b3cc74ad0aeLAGKfM9Yxe7YQp0A[] = {
/* columns rows colors chars-per-pixel */
"22 25 10 1 ",
"  c None",
". c #222034",
"X c #45283C",
"o c #AC3232",
"O c #DF7126",
"+ c #D95763",
"@ c #ECB12D",
"# c #FBF236",
"$ c #D77BBA",
"% c white",
/* pixels */
"          ..          ",
"        ..#%..        ",
"  ..   .#@O@#%.   ..  ",
" .#.    .#XX%.    .%. ",
".@.   ..@Xo+o#..   .#.",
".@.. .O@Xooo+o#@. ..#.",
" .@O.OXXoXo+o+oo@.@#. ",
".@+oO+XoXo+$+o+o$@+$#.",
".Oo+X#+Xo+Xo$+o$%o$+@.",
".OX+o@Xo+X@#o$+o#+$o@.",
".OXoX@o+X@#%#o$+#o+o@.",
" ..oXOX+.@#%#X$o@o+.. ",
"   .OXX+.O@#@X$oo@.   ",
"  .@XXoX+.O@X$o+oo#.  ",
"  .OXoXoX+.X$o+o+o@.  ",
" .OXX@XXoX+$o+oo#oo@. ",
" .OXXXO@Xooo+o#@ooo@. ",
"  .OXXXOOXXXo@@ooo@.  ",
"  .oXXXX.ooOO.ooooO.  ",
"   .oXX. .... .ooO.   ",
"    .oo.      .OO.    ",
"     ..   ..   ..     ",
"         .#%.         ",
"         .O#.         ",
"          ..          "
};
