/* XPM */
static char *_828f53bfc8743cbe3aae1312a425dccDSQqDNkneuIlNm2z[] = {
/* columns rows colors chars-per-pixel */
"40 40 166 2 ",
"   c #271710",
".  c #251914",
"X  c #2C1D16",
"o  c #201B19",
"O  c #2C1F19",
"+  c #321E16",
"@  c #22211F",
"#  c #2B211C",
"$  c #33231C",
"%  c #3A261D",
"&  c #3D291F",
"*  c #252422",
"=  c #2B2623",
"-  c #2E2925",
";  c #2C2C2B",
":  c #322722",
">  c #332A25",
",  c #3B2D24",
"<  c #332D2A",
"1  c #392F2A",
"2  c #3D3027",
"3  c #36302C",
"4  c #3B322C",
"5  c #2F3030",
"6  c #363432",
"7  c #3B3632",
"8  c #373836",
"9  c #3C3935",
"0  c #313638",
"q  c #35393A",
"w  c #3D3D3B",
"e  c #412D22",
"r  c #41352D",
"t  c #4A3C2F",
"y  c #413630",
"u  c #443A33",
"i  c #4A3E34",
"p  c #423E3A",
"a  c #513F31",
"s  c #474034",
"d  c #4C4136",
"f  c #43413E",
"g  c #4D443A",
"h  c #524537",
"j  c #52463A",
"k  c #55493C",
"l  c #5C4C3E",
"z  c #3E4040",
"x  c #444443",
"c  c #494642",
"v  c #454847",
"b  c #4A4946",
"n  c #464A48",
"m  c #4B4C49",
"M  c #554C43",
"N  c #5A4E42",
"B  c #524E49",
"V  c #4D504D",
"C  c #5C5246",
"Z  c #55524E",
"A  c #5A544C",
"S  c #555451",
"D  c #5A5651",
"F  c #575855",
"G  c #5D5A54",
"H  c #5E5E5A",
"J  c #665D4F",
"K  c #615D56",
"L  c #695E52",
"P  c #635E59",
"I  c #666256",
"U  c #6D6455",
"Y  c #66625C",
"T  c #69655F",
"R  c #68655E",
"E  c #6A645E",
"W  c #6A655E",
"Q  c #6B655E",
"!  c #6A655F",
"~  c #68665F",
"^  c #69665F",
"/  c #69675F",
"(  c #6A665E",
")  c #6B665F",
"_  c #69655D",
"`  c #6D675F",
"'  c #69645D",
"]  c #69685F",
"[  c #6D695D",
"{  c #6C685E",
"}  c #6D695F",
"|  c #6D6B5E",
" . c #6E6A5E",
".. c #6F6B5F",
"X. c #6D695E",
"o. c #716758",
"O. c #716B5D",
"+. c #726C5E",
"@. c #74705F",
"#. c #676660",
"$. c #666760",
"%. c #666760",
"&. c #696760",
"*. c #6B6660",
"=. c #6B6760",
"-. c #6C6660",
";. c #6C6760",
":. c #6D6761",
">. c #6B6760",
",. c #666860",
"<. c #666861",
"1. c #666961",
"2. c #6A6A61",
"3. c #6A6962",
"4. c #696A63",
"5. c #6A6B63",
"6. c #6D6860",
"7. c #6C6861",
"8. c #6F6A60",
"9. c #6F6B62",
"0. c #6E6D60",
"q. c #6C6C63",
"w. c #6E6F64",
"e. c #6E6C66",
"r. c #6D6A62",
"t. c #716A60",
"y. c #706B61",
"u. c #736F61",
"i. c #716D62",
"p. c #706F63",
"a. c #736E62",
"s. c #706D64",
"d. c #716D64",
"f. c #726E64",
"g. c #706D66",
"h. c #706E67",
"j. c #726E63",
"k. c #706F69",
"l. c #727063",
"z. c #767363",
"x. c #717165",
"c. c #737064",
"v. c #737264",
"b. c #737067",
"n. c #747065",
"m. c #777364",
"M. c #747464",
"N. c #747265",
"B. c #797565",
"V. c #7E7964",
"C. c #7D7867",
"Z. c #7D7967",
"A. c #7D7867",
"S. c #747168",
"D. c #737468",
"F. c #74746B",
"G. c #7A7769",
"H. c #7D786A",
"J. c #7A786B",
"K. c #777873",
"L. c #7D7C73",
"P. c #817D69",
"I. c #828276",
"U. c #8F8C76",
"Y. c #83887F",
"T. c #8D9389",
/* pixels */
"d d d u i , & & & % i l d u , i U N M a d d h i i d j N l j g j g y e a Y J k h ",
"l.t.w.4.Y L U o.J U D.b.( Y 1 C T.g.r.m.V.b.0.3.F Y 3.u.u.G.H.f.( Y 6 C T.:.m.b.",
"Y Y %.R K ( r.( a.f.Y P P ( p j t.K f.3.Y Y P Y Y ` _ ( f.' P P P &.w i ` Y O.Y ",
",.R Y Y Z Y P u.r.P Y Y &.Y ; d m.} r.&.#.( Y P Y ( O.} ( Y ' Y ' Y < g f.u.( #.",
"' P P K P Y O.r.#.#.Y ' P m ; j G.' P #.&.P K P R O.0.R Y R Y Y P m ; j V.Y Y R ",
"E D D ' Y Y l.R #.&.Y :.D n 5 7 f.Y ' ' ' P K P Y #.,.#.#.#.Y r.D m 5 u f.Y Y ' ",
":.A K P Y Y ] Y *.P P D K D w 7 K ' P ' :.D K :.G R R Y R Y P D G D w y K ' P ' ",
"K G I Y Y Y Y Y P G P K ' ' u 1 D Y E P D K ' P Y Y Y ' K K P K ' ' p < S ' ( K ",
"( Y P :.R R Y Y ( ` ` P P g.4 y #.:.Y m v D ' 3.R &.Y Y &.&.:.P P g.< y &.' D Z ",
"v w 8 c = # ; < w f m x x 6 : , - < ; ; 6 w x 9 3 @ * < p f m w x 6 . $ = < 8 9 ",
"k u 1 : $ y u u p 7 > O r g k N M M g h y 4 4 2 X > k h i < 1 6 y 4 i i y i g h ",
"f.r.' , I F.m.G.e.e.m > } F.:.k.L.F.F.G.f.Z Y A & m.F.F.f.S m ' *.K S -.:.r.m.m.",
"R R Y ; J t.r.Y Y ] P K I.] P P K _ u.Y Y P Y b , a.U ' P P D ' P K K P P ` 3.Y ",
"<.R F < C f.Y ' Y Y Y r.f.( G P ` } ` Y ' P P m < G.3.P ' P D K *.*.P ' P u.( #.",
"R G Y w 6 F P P K Y Y G P Y ' ' 3.Y P Y Y ` Y x 1 G.#.#.P ' D D ' P ' P ' Y Y #.",
"Y Y ( 8 7 m D D D G G Y P Y Y Y R ' ,.( Y Y G S 3 U 4.P ' Y K D P P *.Y ' ' ' Y ",
"( Y F 8 f :.Y G G D D P ' ' Y Y Y R <.R Y P B S < B E ' ' P P ' Y ( P K G ' ' ' ",
"D Z D < i Y Y Y ' Y P ' ( ' Y Y R ,.R H Y G G S 4 Y &.O.P ' P P Y Y D K Z P P G ",
"D Y Y = f Y R Y ' ( :.` P G Y &.Y ( G R ( Z 3.Z : Y ( P P :.:.:.( R r.t.' Y P D ",
"z w 1 O : < 7 m x x m x 8 8 < = 9 9 8 x z w 3 o % 1 w 6 z x x x 4 < ; ; 4 < 9 8 ",
"g s 7 i d u t $ + $ + r k h y : . u G C g i s r i l k h k i i u y : X + N C h k ",
"P.M.r.r.Y 0.m.o.U U U b.F.:.' c 1 I.K.H.m.f.b.e.R f.f.r.n.G.u.b.r.Z $ l Y.F.b.H.",
"#.P Y P Y Y #.( l.q.e.R P P ' m 4 m.P O.Y %.%.Y K P P ( 3.Y Y Y } Z $ l r.Y 0.Y ",
"#.&.P P Y Y Y l.] Y Y Y ' ' &.u > l.t.t.%.,.Y P P P r.u.] ,.1.,.Y m = h z.} 3.#.",
"&.Y K P Y P ' r.R #.Y Y Y Y Z 0 2 B.` ' R ' P K P f.` G G Y R Y K H > h G.Y Y #.",
"Y P K Y ' Y R #.R R Y Y ` K m q > ` ' P ' D D ( &.P G P P Y Y Y :.F < _ 4.P ' Y ",
":.G G ' G P Y Y ' Y G K G G G x 4 D ' Y ( Z G P Y K K Y ' Y ' ' K V 7 l.Y Y Y ' ",
"G G ' Y ' Y Y R K G K K K Y ' b > B Y Y D G Y P ' G G P P _ G S A m > U Y Y ' D ",
"m D ` r.' &.P Y :.&.&.g.&.P f.x : Y &.F G Y Y :.&.Y K Y K G Z G &.B # G Y :.B v ",
"; q z 7 < * * < = > p ; * x f O % 4 = 7 v x 8 f < ; u 7 p p n n f : . < c 1 ; q ",
"d g i u r :   y A k h 4 1 # O M l k j N 1 2 y 1 4 e % $ + $ $ O . d j 4 2 N j k ",
"m.f.t.u.g.b 1 I.U.G.G.G.Y M u.f.` k.F.&.G t.#.D #.c % ' H.U U _ _ S.F.Y G J.4.u.",
"R Y Y %.:.c 2 O._ l.( Y Y Y Y D K K P D B.' Y Y t.9 r P.f.f.4.4.:.P P P P P ' t.",
"Y R <.%.K v < O.0.` ' Y Y Y K G D *.Y P ( Y Y :.D q r g.' Y Y Y Y ' *.G K ' u.t.",
"Y Y Y Y K F 2 @.R Y Y Y Y Y ( P D P P ' Y ' P P B v > m G P ' ' P P P *.Y } ` Y ",
"R Y Y Y &.S 4 +.Y ,.R Y Y Y ` P D D *.' ' Y :.P ' F 1 c Z D A G P P P ' P O.( Y ",
"Y Y ( Y G m 7 +.Y ,.' ' P :.P Z G P E P ' K Z K Y m 1 K &.P K D ' ' ' P E P Y Y ",
"] R D A D x 2 u.%.#.*.P U K A P E P P D P D D P ' x = K P ' P P P :.Y Y P A G Y ",
"G A Z G r.f , t.4.#.K ' *.F G Z E P D D P t.( P g.S = S P P :.:.:.P P &.:.G Y P ",
"8 v n v f < , u x v x x 9 1 * = * 6 x w n x 9 m y = $ 4 7 x x m m 9 f w < 9 7 x "
};
