/* XPM */
static char *_b3b993a2e4d4148e6bfacdc032e90abKATONMhIfVeeP4IJ[] = {
/* columns rows colors chars-per-pixel */
"32 32 40 1 ",
"  c #2E1E22",
". c #760000",
"X c #5C2E00",
"o c #4D3B39",
"O c #534721",
"+ c #383249",
"@ c #444444",
"# c #565657",
"$ c #77584A",
"% c #705654",
"& c #505469",
"* c #6D6D6E",
"= c #767678",
"- c #AD0000",
"; c #FF2627",
": c #964F00",
"> c #8B5E4A",
", c #9D704C",
"< c #A77E5D",
"1 c #8F7772",
"2 c #C79D00",
"3 c #E3B700",
"4 c #FFD600",
"5 c #FFFC00",
"6 c #D7906E",
"7 c #286E9F",
"8 c #7F7191",
"9 c #288DCB",
"0 c #858587",
"q c #928A8C",
"w c #979799",
"e c #B89D92",
"r c #B7A099",
"t c #B7B7BB",
"y c #EEBE93",
"u c #FFE1AF",
"i c gray85",
"p c #D9D9DD",
"a c gray95",
"s c white",
/* pixels */
"&&++&&&&+++&&&&&&&&&&&&&++&&&&++",
"++&&++++&&&+oooo&&&oooo&+8++++88",
"&&&&&&&oooooo%1%ooo%1o&+8&&&&+&&",
"&&&&&&&&o%11ro%11%11oooooo&&+&&&",
"&&&&&&+ooo%%1r1%r11%%r1%o&&&+&&&",
"&&&&&+o%111111111r11r1%ooo&&+&&&",
"&&&&++8oo%11r111111111111%o&+&&&",
"&&&+88o%111r1%1111r111r1%1%o+&&&",
"&&+8&o%11%%1%1r1%rr1.11r1oooo&&&",
"&+8&o%1o-.1%-1r1%r1%-%1r%1o+8++&",
"+8&&&oo.;-%-;111-11-;.11o%%o&&&+",
"+8&&&o%.-..-;%1%;1%;;-1%Oo%o&&&&",
"8+&&o%%-;%%1%%%%u%uuuy%yO&o&&&&&",
"&8+&o%-;;%11%%%1uuOOOuyyO&&&&&&&",
"&&&+oo;;;111uy11uui puuyO&&&&&&&",
"&&&&o-;;-111u,y1uua quuyO+&&&&&&",
"&&&&.--;-11%y,u1uusXXuu6O8+&&&&&",
"&&&+----%%1%O6y1uuu::uy,O&+&&&++",
"+&+.----%%%%%66yuuuuuy6O&&&+++&&",
"++8...-o%o%o%,66yyy66,O&&&+88&&&",
"+8&....&o+o=o==OOOOOOO&&++8&&&&&",
"+&&&..&&+8=tttpsssppt=++8+8&&&&&",
"+&&&++&+==ppwtpppsss32O88+8&&&&&",
"+&&+88==tsp==wt@9ps74O&&&&+&&&&&",
"&++8&==tspt=e#O799974@&&&&&+&&&&",
"+88&==tpst=<<O>>>>>>0@&&&&&+&&&&",
"+&&&==pss=<<>O799997#@&&&&&+&&&&",
"+&&==tssp=>>O*******4O&&&&&++&&&",
"+&&==tsst=OO22444555eO&&&&&+8+&+",
"+&&&==ts==&O>>OOO$>><<O&&&+8&&+&",
"+&&&&==p=&&&OOO&&O$<<<O&++8&&&&&",
"&+&&&&==&&&+&&&&&&OOOO++88&&&&&&"
};
