/* XPM */
static char *_cc143c0f2e5406d8e0c1149daadf0aeqyLJ5shT6HB6jETl[] = {
/* columns rows colors chars-per-pixel */
"32 32 43 1 ",
"  c #2E1E22",
". c #323234",
"X c #760000",
"o c #5C2E00",
"O c #4D3B39",
"+ c #534721",
"@ c #39314B",
"# c #444444",
"$ c #565657",
"% c #77584A",
"& c #705654",
"* c #4F546B",
"= c #6D6D6E",
"- c #767678",
"; c #AD0000",
": c #FF2627",
"> c #964F00",
", c #8B5E4A",
"< c #9D704C",
"1 c #A77E5D",
"2 c #8F7772",
"3 c #C79D00",
"4 c #E3B700",
"5 c #FFD600",
"6 c #FFFC00",
"7 c #D7906E",
"8 c #1A5586",
"9 c #286E9F",
"0 c #827094",
"q c #288DCB",
"w c #858587",
"e c #9F8781",
"r c #928A8C",
"t c #979799",
"y c #B89D92",
"u c #B7A099",
"i c #B7B7BB",
"p c #EEBE93",
"a c #FFE1AF",
"s c gray85",
"d c #D9D9DD",
"f c gray95",
"g c white",
/* pixels */
"**@@****@@@*************@@****@@",
"@@**@@@@**OOOO***OOOO***@0@@@@00",
"*********@@O2&OOOu2&OOOOOO***@**",
"*******OOOOO&22&u2&O22&OO***@***",
"******@@O&2&O&u22&22u22&OOO*@***",
"*****@0OOO&2222u222u2&Ou22&O@***",
"****@@O&222uu222222222u2&OO*@***",
"***@0O&O&2222222u22u222&22&O@***",
"**@0OOO&2u222u2uu2X&u222&22&O***",
"*@0***O2u222u2&u2&;X22Xu2&O2&O@*",
"@0***O&22&2&22X22;:;&2X2u&&OO**@",
"@0***O22&22X2&;2&:::;2X&2&2O****",
"0@**O2&&22&p&aa&aaaap&p&2&&2O***",
"*0@*OO+&2&p+++aaaaa+++p7&7O&O***",
"***@O*+&2&ps daaaaad sp7&7+OO***",
"****@*O+&<pf raaaaar fp<&+O*O***",
"*****@O&&<pgooaaaaaoogp<&&O*****",
"***@@0O&O+7p>>aaaaa>>p7+O&O***@@",
"@*@@00*#--+7paaaaaaap7+--#*@@@**",
"@@00**#--ii+<7ppppp7<+ii--#00***",
"@0****#tdidi+++++++++idddi#*****",
"@*****#-ttwdggdi-idggdwdit#*****",
"@***@+,#$$.8dgg434ggd8.===.*****",
"@**@0+,,+..89gqq6qqg98.=ye+*****",
"*@@0-i++--.%89qq5qq98%+y11+@****",
"@00-iii--.#8%,,www,,%8+111+@****",
"@**-idi--.#$9qq=6=qq9$+,1%+@****",
"@**-id---+3$===6$6=$$$3+++-@@***",
"@***-i----+5566###5533+ggg-@0@*@",
"@****-****-%eye+-+,,,+-ggg-0**@*",
"@**********+,11%**+++*--g-0*****",
"*@*********+111%****@@@@-0******"
};
