/* XPM */
static char *_edbca31bba549469fde9040937dbd4bLKtayPOk3XxzUoyO[] = {
/* columns rows colors chars-per-pixel */
"32 32 21 1 ",
"  c #760000",
". c #4D3B39",
"X c #534721",
"o c #383249",
"O c #444444",
"+ c #77584A",
"@ c #705654",
"# c #505469",
"$ c #767678",
"% c #AD0000",
"& c #FF2627",
"* c #8B5E4A",
"= c #A77E5D",
"- c #8F7772",
"; c #7F7191",
": c #858587",
"> c #9F8781",
", c #B7A099",
"< c #B7B7BB",
"1 c #D9D9DD",
"2 c white",
/* pixels */
"##oo####ooo#############oo####oo",
"oo##oooo###o....###....#o;oooo;;",
"#######......@-,...@-.#o;####o##",
"########..@--.@-,@,-@.....##o###",
"######...@--,--@---@.@-@.###o###",
"#####.@---.@-,-----,,-@...##o###",
"####oo..@-------@@---,---@.#o###",
"###o;.@--@---,----@-----@.@.o###",
"##o;.@--@,--,,--,--,---,-@...###",
"#o;.@-.@,-@-,---,,@-,---,-.o;oo#",
"o;##..@@--@---@-,-@-,@-@--@.###o",
"o;###.-@-@@--@@@--@--@--@--.####",
";o##.-@@@ @-@ %%-- @-@-- @@-.###",
"#;o#.@.@  @@ % &-@  @ @- @...###",
"###o...@@  @%& &@% %   @@@.#.###",
"####.#.@@@@ %%% % %%% @@@@.#####",
"#####o.@@.@@@%&%@%&%@@@.@@.#####",
"###oo;.@..@@%&&@@&&%@@@..@.###oo",
"o#oo;;#.O.@@&&&@@&&%@@@.O.#ooo##",
"oo;;###O$$.@&&%.&&&@.@.$$Oo;;###",
"o;####O:<$<&&&.<&&&.<.<<$O;#####",
"o#####O$:$1&&&11&&&1<<11$OX#####",
"o###ooXO$<1&&&22&&&11<121$>X####",
"o##o;;X*$12&&122&%%2211221$*X###",
"#oo;##oX$122122222222221221$X###",
"o;;###o;$112122222222222222<X###",
"o######o$<121222222222222221$###",
"o#######$<111122222222121222$###",
"o#######$<<1<122122221<21122$o#o",
"o#######$<<1<122112211<<1<$$##o#",
"o########$$<$<1211111<$<$$;#####",
"#o#########$===+$<<<$$$$;;######"
};
