/* XPM */
static char *_f86195190a34db683d7e598274a0868V3e5iLesIJ2Y0CIS[] = {
/* columns rows colors chars-per-pixel */
"32 32 232 2 ",
"   c #251B0F",
".  c #3A142B",
"X  c #38333C",
"o  c #2C3533",
"O  c #6A0200",
"+  c #690400",
"@  c #720301",
"#  c #7A0202",
"$  c #750607",
"%  c #78130B",
"&  c #58340A",
"*  c #4A352B",
"=  c #523C27",
"-  c #4C3A35",
";  c #453A3D",
":  c #493B3B",
">  c #473638",
",  c #533B37",
"<  c #462F37",
"1  c #603C30",
"2  c #48471A",
"3  c #52451A",
"4  c #584719",
"5  c #4F4E14",
"6  c #4B4A24",
"7  c #564629",
"8  c #565226",
"9  c #4A4237",
"0  c #554838",
"q  c #475025",
"w  c #705031",
"e  c #2D2C43",
"r  c #282F4B",
"t  c #322E43",
"y  c #382C49",
"u  c #2E334A",
"i  c #2E3846",
"p  c #323244",
"a  c #3E3A43",
"s  c #35344B",
"d  c #3A344B",
"f  c #3B3A4C",
"g  c #393743",
"h  c #353251",
"j  c #3A3650",
"k  c #442D4A",
"l  c #443C45",
"z  c #483948",
"x  c #553945",
"c  c #4B3954",
"v  c #38504F",
"b  c #4B4447",
"n  c #544341",
"m  c #495147",
"M  c #4B4D5D",
"N  c #444A59",
"B  c #554D5D",
"V  c #4C545E",
"C  c #4B555F",
"Z  c #53525C",
"A  c #57555C",
"S  c #52514C",
"D  c #6E4E4F",
"F  c #784D48",
"G  c #69564A",
"H  c #75584C",
"J  c #6F4D57",
"K  c #724E54",
"L  c #794D5A",
"P  c #6A5552",
"I  c #6C5B53",
"U  c #675956",
"Y  c #725B54",
"T  c #725C5A",
"R  c #785A57",
"E  c #616041",
"W  c #7D6449",
"Q  c #75655D",
"!  c #666A56",
"~  c #4D4E62",
"^  c #4D4E6C",
"/  c #464D66",
"(  c #534E63",
")  c #554E6B",
"_  c #5B4C6A",
"`  c #4C5265",
"'  c #435967",
"]  c #455568",
"[  c #4D546A",
"{  c #4C5C6D",
"}  c #485664",
"|  c #525365",
" . c #5A5463",
".. c #535B65",
"X. c #595962",
"o. c #52546A",
"O. c #54596C",
"+. c #5A5A6D",
"@. c #58566C",
"#. c #4D4F72",
"$. c #564B73",
"%. c #4C5773",
"&. c #575A73",
"*. c #5A5B72",
"=. c #555476",
"-. c #725A62",
";. c #665467",
":. c #5B726A",
">. c #767868",
",. c #7A6E77",
"<. c #6E7577",
"1. c #737476",
"2. c #787879",
"3. c #6D6C65",
"4. c #87000D",
"5. c #A30001",
"6. c #AA0004",
"7. c #A80806",
"8. c #B30100",
"9. c #B6000B",
"0. c #BB0112",
"q. c #A60111",
"w. c #C80400",
"e. c #FD1B1F",
"r. c #FB271B",
"t. c #FD2A26",
"y. c #FA2428",
"u. c #FE2935",
"i. c #905505",
"p. c #A14700",
"a. c #835B3E",
"s. c #8B6737",
"d. c #A06D38",
"f. c #FF2A42",
"g. c #89584F",
"h. c #87624C",
"j. c #956544",
"k. c #997746",
"l. c #9A7D55",
"z. c #8D6A50",
"x. c #A47759",
"c. c #815564",
"v. c #856D64",
"b. c #8B746C",
"n. c #8E7A6C",
"m. c #857868",
"M. c #96766B",
"N. c #8C7572",
"B. c #8D7A74",
"V. c #8C797A",
"C. c #857477",
"Z. c #917775",
"A. c #927A75",
"S. c #947C7C",
"D. c #987878",
"F. c #996C73",
"G. c #A37968",
"H. c #A87C71",
"J. c #5D807A",
"K. c #CF990D",
"L. c #C7A40A",
"P. c #E5B500",
"I. c #FFD900",
"U. c #FFD808",
"Y. c #FBD915",
"T. c #FBFA03",
"R. c #A58063",
"E. c #AB8B52",
"W. c #D4935D",
"Q. c #D29369",
"!. c #D88A78",
"~. c #D88C6D",
"^. c #2C6D99",
"/. c #2B70A2",
"(. c #5E6F81",
"). c #766E86",
"_. c #75758D",
"`. c #7B748B",
"'. c #7B7985",
"]. c #7B7695",
"[. c #72728B",
"{. c #887A86",
"}. c #847596",
"|. c #876C92",
" X c #2A89CB",
".X c #298AD6",
"XX c #2E8CC4",
"oX c #8B9690",
"OX c #909E91",
"+X c #9B8182",
"@X c #B69B99",
"#X c #AD9E9B",
"$X c #BAA29C",
"%X c #B8A898",
"&X c #BAA789",
"*X c #BDA2A1",
"=X c #B9BBBB",
"-X c #B6B6B8",
";X c #AEB8B5",
":X c #E7BD97",
">X c #F7BC95",
",X c #EDB88B",
"<X c #C49DA0",
"1X c #C0A1A9",
"2X c #F7BBA3",
"3X c #F0C08F",
"4X c #E3C39C",
"5X c #FFDB9F",
"6X c #E9C589",
"7X c #FEDCAE",
"8X c #FBDEA4",
"9X c #FFDAB9",
"0X c #F4C6A4",
"qX c #FBE3A4",
"wX c #FDE3AC",
"eX c #FDE3B3",
"rX c #FBE5BB",
"tX c #F7E0B6",
"yX c #EDE1B1",
"uX c #BAB7C3",
"iX c #BCABCB",
"pX c #C2B4C7",
"aX c #CDD9DE",
"sX c #D7D7D9",
"dX c #F2D6CE",
"fX c #DBE0D9",
"gX c #FFE1C2",
"hX c #DADAE3",
"jX c #CFD2E5",
"kX c #E0D8E5",
"lX c #FDFEFE",
"zX c #F8F9F5",
/* pixels */
"| | g t | [ | O.u u s ( o. .M  .` *.` Z Z Z o.#.s d ( | O.` s d ",
"j u | | h u s X X. .| X l l b ;  .~  .b : b l Z y _.f p e f `.).",
"[ ` | O.[ [ ~ l ; < n > > T b.I : z < P Z.> B d '. .| o.) d ) @.",
"` [ o.[ [ | | +.0 P N.B.$X* Y b.V.U R.Z., - , ; x a [ o.y ) O.` ",
"[ ` O.` ` ( g ; - - T P b.@XA.Y *Xb.Z.P D $XN.T , Z V ` h ) | ] ",
"~ O.~ o.*.p l -.N.B.B.B.S.N.N.N.m.%Xb.A.$XZ.T : > 9 A | s | [ { ",
"O.` &.^ e d C.< , T v.Z.@XN.S.Z.N.S.C.Z.S.n.b.n.b.Q l A p | [ / ",
"` | | h }.).x R B.b.A.$XA.Y b.b.n.B.$XN.M.A.@XA.R N.P z X ` *.o.",
"`  .k [.} , g.N.N.H F {.H D.#XB.G *X@X>.@ M.B.%XV.- * z l | %.| ",
"' f |.{ c R >.9 q.O M.Y q.C.%XM.R @XS.W 8.;.m.*XP Z.* ; `.p s M ",
"y [.&.V  .l , $ f.5.E 6.t.M.M.S.5.D.M.6.t.@ G.b.* T Q < ) +.[ f ",
"k }.` X.v z R + 5.$ 4.9.y.U B.L u.M.U u.e.8.2.Y = x P a +.~ o.~ ",
"}.r ] A x -.F 5.r.G I F.W U J I eXD qXyXrX0XP >X8 B b A M ` &.` ",
"] |.c ` < I 9.u.r.c.C.+XF Y P B.tXqX8 5 & gX,X3X3 | [ C o.o./ O.",
"{ ~ | k 9 7 y.y.u.2.n.B.9X4XM.V.wX9XjX  sXwXrX:X3 ) [ ..^ O.` ` ",
"| [ [ o.; 5.t.y.8.m.M.M.tXk.,XD.wX7XzX. oXtX5X>X8 y %.} [ o.o.[ ",
"[ %.o.' @ 6.9.t.6.M.V.F 6Xk.7Xn.wXqXlX& & 7X7XQ.= {.d [ [ [ Z | ",
"] _ X.X 0.8.5.7.R U {.K = !.2Xn.eXrX7Xp.i.gX>Xk.0 M e ~ &./ f t ",
"y } a # 5.7.5.0.T G D Y ! Q.~.2X8X9X7X9XwX:XW.3 m o.*.p s d ( ) ",
"i s _.@ + O w.z D n H - I k.~.~.4X:X6X!.Q.d.0 %...^ h `.`.o.| o.",
"y }.$.4.% # # ] x y , ,.> 1.>.8 3 8 2 4 6 6 { $.h j `.) | | O.[ ",
"X _ o.o.O # ) +.o ].[.pX-XiXhXzXzXzXsXhX-Xv.i s ].t `.=.| | [ ] ",
"d o.V _ i o #.o C.,.aXfXoX=XsXhXjXlXlXlXP.L.2 }.}.d '.#.O.` [ o.",
"s C O.p ).].'.'.uXzXhX>.C.OX-Xc XXsXzX^.Y.& &.A $.A p ^ O.` o.| ",
" .s h `.~ 2.1.uXlXkX;X'.&XS q /. X X X/.I.v %.o.| / O.s / [ o.[ ",
"s ]._.( '.'.-XsXlX=X,.R.x.= h.g.W h.z.a.{.m N ) / | &.p X.*.N o.",
"d ) | X.<.1.sXlXlX>.G.x.z.7 ^. X X.XXX^.B z ..X.&.` ~ s O.` O.[ ",
"f ~ ~ '.1.=XlXlXhX,.j.W 2 Q <.! ! [.3.:.I.7 / ^ } o.~ d t ( O.[ ",
"e +.| '.<.=XlXzXpX_.2 7 K.K.U.I.I.T.T.T.<Xq ' ..O.` @.s `.s ~ s ",
"f M O.V 1.1.=XlXB.3.C 5 s.s., 7 4 R W j.l.x.4 _ ` o.t '.( o.s [ ",
"t +.) / o.2.1.sXJ.| o.=.2 8 5 #.` 8 F R.x.E.7 $.d e ].[ O.` ` o.",
" .s [ %.| Z '.,.) &.` p =.^ V ) o.o.q 7 7 3 s i `.}.~ O.~ O.o.| "
};
