/* XPM */
static char *_3d7fba01fb04c60c52622d15015b728GIsXdyVcW9Ifpzkz[] = {
/* columns rows colors chars-per-pixel */
"32 32 225 2 ",
"   c #3D2F3C",
".  c #34343E",
"X  c #3D363E",
"o  c #2A2B3F",
"O  c #6B0403",
"+  c #670004",
"@  c #710201",
"#  c #7B0101",
"$  c #74010C",
"%  c #78040A",
"&  c #6E0016",
"*  c #790318",
"=  c #4E3C2F",
"-  c #49372B",
";  c #442F3D",
":  c #4A3534",
">  c #453935",
",  c #4C3B35",
"<  c #45373A",
"1  c #443B3C",
"2  c #4B3C3C",
"3  c #453336",
"4  c #513C3A",
"5  c #523739",
"6  c #4B4D24",
"7  c #57472C",
"8  c #4A4339",
"9  c #554536",
"0  c #6B573C",
"q  c #2C2B42",
"w  c #342E45",
"e  c #3A2F4B",
"r  c #382B47",
"t  c #2F3142",
"y  c #333345",
"u  c #393445",
"i  c #34334B",
"p  c #39354C",
"a  c #37394A",
"s  c #39384A",
"d  c #3B3A52",
"f  c #393354",
"g  c #283054",
"h  c #433945",
"j  c #4C3B42",
"k  c #473946",
"l  c #543A46",
"z  c #443054",
"x  c #4B4143",
"c  c #4B414A",
"v  c #454649",
"b  c #52444C",
"n  c #544240",
"m  c #535144",
"M  c #4B4D5D",
"N  c #454959",
"B  c #544D5F",
"V  c #4D535E",
"C  c #4B5256",
"Z  c #55525D",
"A  c #595457",
"S  c #6F4D4B",
"D  c #75494C",
"F  c #6F5243",
"G  c #64514D",
"H  c #6B544D",
"J  c #625A49",
"K  c #79544C",
"L  c #7D5C49",
"P  c #745A46",
"I  c #6E4F55",
"U  c #724A54",
"Y  c #6C5553",
"T  c #655952",
"R  c #6C5B54",
"E  c #6D535C",
"W  c #6C5A5C",
"Q  c #635456",
"!  c #735453",
"~  c #755D53",
"^  c #74565B",
"/  c #735C5C",
"(  c #785458",
")  c #6C614F",
"_  c #6C615D",
"`  c #736258",
"'  c #4C4D64",
"]  c #4C4C68",
"[  c #524D63",
"{  c #524D6A",
"}  c #5A4F6D",
"|  c #465767",
" . c #4C5364",
".. c #4C546A",
"X. c #495A65",
"o. c #525365",
"O. c #5C5363",
"+. c #545965",
"@. c #53546B",
"#. c #59546D",
"$. c #53596B",
"%. c #595D6B",
"&. c #434D70",
"*. c #4C5974",
"=. c #535572",
"-. c #5A5572",
";. c #565B72",
":. c #595C73",
">. c #53537A",
",. c #6F5B60",
"<. c #675964",
"1. c #755861",
"2. c #536772",
"3. c #74746C",
"4. c #7A7869",
"5. c #6E7279",
"6. c #747374",
"7. c #7C7475",
"8. c #757579",
"9. c #7A757D",
"0. c #7F7C7D",
"q. c #767B79",
"w. c #676C68",
"e. c #860200",
"r. c #A40300",
"t. c #AA0401",
"y. c #A9010C",
"u. c #B30102",
"i. c #BA0102",
"p. c #B20009",
"a. c #B9000A",
"s. c #F01C0E",
"d. c #FF161C",
"f. c #F8241B",
"g. c #FF1D26",
"h. c #FE2325",
"j. c #FC2925",
"k. c #FE232A",
"l. c #FF2A2B",
"z. c #F52828",
"x. c #FA342C",
"c. c #F62435",
"v. c #F12C31",
"b. c #81565B",
"n. c #865C5E",
"m. c #86554E",
"M. c #846145",
"N. c #916F6D",
"B. c #8C7665",
"V. c #86736D",
"C. c #8A756D",
"Z. c #8E7B6D",
"A. c #857B6A",
"S. c #927366",
"D. c #927A6E",
"F. c #947869",
"G. c #8E7573",
"H. c #8B7A73",
"J. c #8E7B79",
"K. c #877777",
"L. c #947472",
"P. c #927A75",
"I. c #927D7A",
"U. c #997878",
"Y. c #86816E",
"T. c #93826E",
"R. c #858077",
"E. c #898470",
"W. c #9A877A",
"Q. c #A3806A",
"!. c #786B89",
"~. c #7B748B",
"^. c #7E798B",
"/. c #777685",
"(. c #776D90",
"). c #7B7492",
"_. c #7F7B92",
"`. c #857988",
"'. c #927E80",
"]. c #857899",
"[. c #7D848A",
"{. c #B39D93",
"}. c #B49D9B",
"|. c #BC9D9A",
" X c #AD9887",
".X c #B5A49B",
"XX c #B5A196",
"oX c #A5A390",
"OX c #9FB3AA",
"+X c #AEA0A0",
"@X c #BCB3AE",
"#X c #AAB1B8",
"$X c #B2B3B4",
"%X c #B5B6BA",
"&X c #BEB4B9",
"*X c #BBBABD",
"=X c #B8B7B6",
"-X c #B2ADAA",
";X c #C19C9C",
":X c #CA989B",
">X c #C89CA3",
",X c #C2BAAF",
"<X c #BAB9C1",
"1X c #C2B6C2",
"2X c #D3D5D6",
"3X c #DDD6D4",
"4X c #DCDBD5",
"5X c #D5D5DA",
"6X c #DBD5DB",
"7X c #D6DBDD",
"8X c #DADADC",
"9X c #D4DED6",
"0X c #E0CFD9",
"qX c #E6D5D9",
"wX c #E3DCDA",
"eX c #D3E0D7",
"rX c #DCDBE2",
"tX c #DCDAE7",
"yX c #D3E7E8",
"uX c #E1E0E5",
"iX c #F7F7F7",
"pX c #FCFDF5",
"aX c #F4FFFE",
"sX c #FDFDFE",
"dX c #FBF6F9",
/* pixels */
"@.o.s w { -.@. .i i i @.@.o.Z o. .$.o.@.O.M ;. .i i [ o. . .p e ",
"i i M :.i q y a O.O.V X X b h j @.#.O.< 8 x . +.w ^.p y a p ~.~.",
"] $.@.|  .@.o.v < 2 , 3 n G I.}.1 > , Y C.2 O.p `.B o.@.{ w @.@.",
"o.@.' $...%.Z A 8 , Y I.P.- ~ F.XX/ |.U.Y 5 5 > l s $. .f } o.$.",
"..$.X...@.M c 3 : Y G.J.}.P.P.! B.P.L.^ 5 H G.R 2 A V  .p -. .| ",
"@.@. .'  .c W I.J.I., Y G.}.P.G.D.Z.C.{.{.J.1.k 4 2 C +.q ' ;.| ",
" .$.$.@.u   > - H C.P.P.P.P.C.P.^ Y I.P.T. XC.P.P.W j Z s ' $...",
"*.' @.w ~.j / D.P.! C.P.C.}.I.G.B.I.I K.P.P.P.F.H 5 / 1 u  .@.@.",
"X.[ u ~.5 / C.I.K }.F.B.>X+XF.G.;XA.P.|.H.H.N.|.Y.Y j j j [ *.o.",
" .d ~.h 1.P.- Y +XU.R K.oXJ.W.G.|..XH P.>XG.E.K.:XL.2 < `.e w @.",
"i ).;.M : , R / `.4.D J.Z.N.( K.oXH.m.q.:X~ '.S H.Z./ ;  .X.o.f ",
"p !.' %.A , V.! P.S n.V.P.H K ) P.B.W A.G.U Z.U.S E.H.l C X. .} ",
"~.z #.V j H.Y ! 0 % S L.) @ y.y.V.U.* Y E.` P.Z.% K Q U.b V @.M ",
"@.!.i V j Y 2 ^ $ e.` Q @ r.# k.U.S % % F e.T S.+ ! x : l [ ..+.",
"o.@.$.y j 2 > ^ ! e.& Y i.x.@ k.J p.+ t.O * # w.` G 8 A h o.|  .",
"X.@. . .j G 2 W / J ! $ i.t.p.@ t.# u.r.a.# Y U I b.> X.o.[ ..*.",
"o.| ..V =.w , ! Y , K <.H r.l.u.<.t.l.t.( ! H 4 ( / 2 | *.m o.>.",
" . .;.y f ].- _ 4 2 Y ^ p.z.d.H n.h.v.t.^ _ Y , 5 Y < B o.;.. y ",
"p @.q . ).(.A 8 v < Q ( s.l.l.<.0 j.z.a.1.U T 2 c > ;.; e g $.V ",
"p w ].^.] >.C N 6.R.5 P x.l.r.5 c.x.h.P j / 5 7.3.v o ].`.>.o...",
"w ].' N >.=.v [.%Xq.OXc.g.l., @Xg.f.g., $Xx $X&Xq.v `. .&.Z =.{ ",
"i o.@.+.=.' 8 3.`.^.wXl.j.f.rXtXk.v.h.9X<X$XqX6X5.v - X.2.{ ..o.",
"y o.@.o.i w 8 9 5.#X9Xg.h.v.aXaXj.k.z.6XyXOXrXsXyX3.W.7 c ..*. .",
"y o.@.y ~.`.7 L 8.4XpXh.v.wXsXpXz.u.i.sXdXwXqXaXaXqXK.M.7 ..$...",
"o.s e (.$. .X 8 /.5XaXsX7XsXsXdXsXiXsXsXsXsXsX4XpXdXwX0.6 { $.C ",
"u ~.).-.]  .s K.7.4X4XpX2XsXsXsXdXsXsXdXsXsXsXsXsXsXdX$X6 ] *.+.",
"i ] #.$...;.@.w 6.=X3XsXuXaXsXdXsXdXsXsXsXsXsXsXpXsXsX6X4.{ { $.",
"p #.]  ...' =.@./.%XrX8X8X8XdXpXaXsXsXsXaXiXrXsX4XsXsXsX3.@.>.] ",
"s ' %. . .$. ...q.%X#XtX%X2XsXpXwXsXsXsXsX8X*XsX4X5XsXpX8.d @.i ",
"y o.+.V o.@.....7.=X<X6X*X2XsXsXrX5XsXsX8X8X$X=X8X%X^.5.V  .t ..",
"p ' | ..@. .@...C 9.0.@X3.,XqXpX2X8X8X8X2X*X6.*X8.~./.o...%.o.@.",
"' d ....o.@.o. .*...M K.T.F.F.L 8.*X=X%X8.8.8.8.~.).@. .>.'  .=."
};
