/* XPM */
static char *_430cb0ffac646c2b3ac846050f2d672lm4ONGTP6p8Vff5E[] = {
/* columns rows colors chars-per-pixel */
"32 32 233 2 ",
"   c #251B0F",
".  c #332D3A",
"X  c #3D353B",
"o  c #39353B",
"O  c #253A3F",
"+  c #3A142B",
"@  c #6B0202",
"#  c #720401",
"$  c #790304",
"%  c #612A01",
"&  c #4A362C",
"*  c #593B29",
"=  c #4B3635",
"-  c #4D3935",
";  c #4C3C3B",
":  c #45383C",
">  c #55393A",
",  c #562B09",
"<  c #3B4C05",
"1  c #3F4E25",
"2  c #56460B",
"3  c #4A4919",
"4  c #55481A",
"5  c #585119",
"6  c #61411B",
"7  c #4B4727",
"8  c #524322",
"9  c #5A4827",
"0  c #464134",
"q  c #554437",
"w  c #53502F",
"e  c #6A4D38",
"r  c #2D2D44",
"t  c #2D294C",
"y  c #332E45",
"u  c #342C4A",
"i  c #392E48",
"p  c #2F3348",
"a  c #353145",
"s  c #3B3443",
"d  c #34334A",
"f  c #39344C",
"g  c #35384C",
"h  c #3B3A4A",
"j  c #393753",
"k  c #2D3D56",
"l  c #3F2D61",
"z  c #433A43",
"x  c #4B3D44",
"c  c #4B3E4C",
"v  c #44344E",
"b  c #442E59",
"n  c #433853",
"m  c #513742",
"M  c #623248",
"N  c #3D515C",
"B  c #3E5866",
"V  c #48464A",
"C  c #4D5849",
"Z  c #454A5D",
"A  c #4A4A58",
"S  c #534E5A",
"D  c #45525A",
"F  c #4A5A5D",
"G  c #4C535C",
"H  c #54535C",
"J  c #545859",
"K  c #595A4C",
"L  c #7A4E4E",
"P  c #695647",
"I  c #74564D",
"U  c #765C4C",
"Y  c #6A4F5A",
"T  c #734E58",
"R  c #6C5554",
"E  c #665B55",
"W  c #6C5A54",
"Q  c #6B5559",
"!  c #6D5A59",
"~  c #715552",
"^  c #725B55",
"/  c #765B58",
"(  c #6B684F",
")  c #4B4D63",
"_  c #4E4E6B",
"`  c #524E64",
"'  c #524D69",
"]  c #5B4B69",
"[  c #455264",
"{  c #4C5365",
"}  c #4D546B",
"|  c #455B6C",
" . c #4B5B6C",
".. c #485766",
"X. c #525364",
"o. c #595464",
"O. c #525A63",
"+. c #5B5866",
"@. c #53546B",
"#. c #59546B",
"$. c #54596C",
"%. c #5D5C6C",
"&. c #4B5573",
"*. c #525472",
"=. c #565A71",
"-. c #5A5C70",
";. c #595679",
":. c #5B4D70",
">. c #674E68",
",. c #6E5762",
"<. c #476162",
"1. c #7E6868",
"2. c #7A7B6B",
"3. c #786C78",
"4. c #6D7C75",
"5. c #787978",
"6. c #6C6B7D",
"7. c #900605",
"8. c #A30102",
"9. c #AB0003",
"0. c #A70608",
"q. c #B50101",
"w. c #B50008",
"e. c #A90112",
"r. c #B20010",
"t. c #FD1B1F",
"y. c #FA271B",
"u. c #FF301B",
"i. c #FE1A28",
"p. c #FD2424",
"a. c #FE2A29",
"s. c #FD2B36",
"d. c #FF2739",
"f. c #FF362F",
"g. c #985301",
"h. c #81632D",
"j. c #FF2A42",
"k. c #835D42",
"l. c #975956",
"z. c #8F574D",
"x. c #95734C",
"c. c #A1785C",
"v. c #815564",
"b. c #87756D",
"n. c #8D746D",
"m. c #897868",
"M. c #93766C",
"N. c #927A6D",
"B. c #99756A",
"V. c #8A6E72",
"C. c #8C7572",
"Z. c #8D7A75",
"A. c #897578",
"S. c #917773",
"D. c #927A74",
"F. c #937B7B",
"G. c #987678",
"H. c #8F6D6D",
"J. c #AC7C6D",
"K. c #BBA301",
"L. c #C49C06",
"P. c #C5A600",
"I. c #E8BA0D",
"U. c #FFD904",
"Y. c #9E834E",
"T. c #A48157",
"R. c #938266",
"E. c #94827E",
"W. c #87826F",
"Q. c #A68265",
"!. c #A0897B",
"~. c #D69070",
"^. c #E48C6B",
"/. c #D48952",
"(. c #214F81",
"). c #2572A4",
"_. c #736C84",
"`. c #766C8A",
"'. c #727281",
"]. c #7B748C",
"[. c #787588",
"{. c #7D7493",
"}. c #7C7795",
"|. c #6E7480",
" X c #847588",
".X c #827594",
"XX c #847C98",
"oX c #8C6C84",
"OX c #AA7E95",
"+X c #268FBC",
"@X c #748686",
"#X c #8F9789",
"$X c #B79C99",
"%X c #AE9E95",
"&X c #BDA39D",
"*X c #B4A797",
"=X c #B7AFB9",
"-X c #ACBAB9",
";X c #B5B6B7",
":X c #BDA0A2",
">X c #F4BB8B",
",X c #F6BB9D",
"<X c #F6B794",
"1X c #E7BA91",
"2X c #C2ADB0",
"3X c #CA9793",
"4X c #F2C289",
"5X c #E4C291",
"6X c #FBDDAD",
"7X c #FDDCB8",
"8X c #EFC6A6",
"9X c #FBE4A4",
"0X c #FEE3AD",
"qX c #F2E6A8",
"wX c #FDE3B2",
"eX c #FCE3BC",
"rX c #F7E0B6",
"tX c #ECE2AA",
"yX c #B5B4C6",
"uX c #C3B6C1",
"iX c #CED7DA",
"pX c #D5DBDC",
"aX c #D7D9D6",
"sX c #C3C1CE",
"dX c #FFDAC0",
"fX c #D1E2DB",
"gX c #D7D6E3",
"hX c #DFD6F1",
"jX c #EAD9FD",
"kX c #D4E3E6",
"lX c #F8F8ED",
"zX c #FEFDFC",
"xX c #F8FDF7",
/* pixels */
"@.X.a a %.) @.} j f i H o...[ ..+.X.$.{ ) *.} ..i d ' =._ X.f i ",
"p j @.) y g r f H X : : V H @.@.z : z V S +.+.X.. {.d g p d {.].",
"@.) } $.@.G %.S +.X : C.~ > = 0 / D.R > ; ; & V c @._ } X.d X.@.",
"X.{ } &.} $.s x : ; - q S.V.v.C.M./ & &XC.D.R >  XS X.} g ` @.X.",
"{ =.} [ ..o.o ; ! C.&X~ R F.A.*X^ n.&Xb.R ^ - - x H $.} p @.) } ",
"X.{ } } X.o = = m Q F.$XS.n.%XR.D.b.F.E.Z.C.C.F.Q z { } u #.-.[ ",
"} ) -.+.. x ! D.N.N.n.n.C.F.Z.A.C.D.b.$XC.C.^ = = ,.{ @.f @.A  .",
"} =.A s x Q F.~ C.*XS.D.D.$Xn.n.C.S.~ n.&XM.N.M.! o X.{ u @.+...",
"D :.a V x - & F.*Xn.B.# 2.$X3XP E.%XG.I  Xk.P S.F.P - >.d *.....",
"$.j _.@.Y & E.^ :Xm.>.q./ D.%X1.n.*XV.e.~ N.@ e.- D.! c `.p v X.",
"d `.{ $.z ^ R & b.B.# a.9.B.G.8.S.M.D.a.9.K 8.j.$ > x '.X.' } a ",
"i XX} } z R x w ! W.q.t.s.E n.s.T Z.W p.q.7.$ 8.@ L h <.F @.=.[ ",
".Xi } } o.z ] 8 <XE ,XwXtX0XT wXW T ! U H.L P u.q.U ,.M S B #.$.",
"' XXg } S #.@.3 4X>XdX4 5 9 9X0XD.R U I #XZ.T i.i.r.I X +.>.| ) ",
"} ` ' p %.} _ 4 5XeX6XgX  iX7X0XE.B.1X7Xm.M.5.s.f.i.8 V N } { #.",
"| X.] *.. | *.4 <X9XeX#X+ xX6X0XD.1Xx.7XD.N.b.q.y.a.i.=  .@.{ X.",
"{ } { X.:.u : 3 ^.6XtX% , zXwXeXW.7Xx.5XW G.G.9.y.s.p.$ *.F *.H ",
"$.$.X.a u {.o 0 x.8X9Xg.g.0XtX6Xm.<X^.4 L A.E I 8.i.y.p.J  .r n ",
". @.u r }.}.) +.3 /.>X0XrX7XwXqX,X~.~.K v.T ^ ! 0.p.s.s.$ g D _ ",
"i h }.].$.#.*._ *.0 c.~.~.4X>X,X^.~.x.E q R 0 T - u.$ # 9.F ;...",
"h `.' @.G D } &.' s * 9 4 8 9 7 3 2.4.> J = H m b @ 0.9.r.*.:.] ",
"r @.=.} $.$.G } s `.b.yXfXpXxXzXxXaXjX=X6.a k . [.n 9.8.@._ F | ",
"g $.A @.u j ` j oX9 K.I.lXzXxXaX=XgXuXiXsX X_..XoXp [. .` H *.F ",
"t o.H j }.`.i }.| =.2 U.).zXgXV 5.-X#XaXaX;X5.} | { b { &.X.@.{ ",
"@.r g ].} { d  X[ @.V U.).+X4 3X$XJ F zXhX-X;X5.{ X.{ g } _ $.{ ",
"a XX].X.{ } h ].o.:.x @Xl.3 J.R.c.!.'.xXpX2X=X5.5.$.@.u $.@.Z $.",
"d ` @.) @.$.) u | D C C B w J.Y.T.e 2 zXaX=XyX;X|.{ X.a @.=.{ ..",
"r @.$.X.=.Z @.@.l H * L.[ & k.z.~ e 6.zXpX-X4.-X|.O.#.y n A { @.",
"g @.) { ..) $.@._ 5 l.k.P.U.4 1 4 L.U.lXkXyXA.b.{ G X.a _.h @.d ",
"d } ) $.$.@.{ [ ;.< h.l.k.9 9 OX!.c.zXpXyX=X3.| X.#.f XX@.` g ) ",
"f ) $.{ ) @.$...[ &.4 7 9 ' ..4 Q.{.fX;X X[.F ) i u ].) ) { } @.",
"` f } ..#.{ @.{ ' +.*.y &.` *.{ 2 3 [.2.. s u j .X].} $.} ..@.) "
};
