/* XPM */
static char *f101e6fa6f934818f171d95ca24cce54GKk3xG7XhP9Hmi8n[] = {
/* columns rows colors chars-per-pixel */
"32 32 41 1 ",
"  c #2E1E22",
". c #760000",
"X c #5C2E00",
"o c #4D3B39",
"O c #534721",
"+ c #383249",
"@ c #444444",
"# c #565657",
"$ c #77584A",
"% c #705654",
"& c #505469",
"* c #6D6D6E",
"= c #767678",
"- c #AD0000",
"; c #FF2627",
": c #964F00",
"> c #8B5E4A",
", c #9D704C",
"< c #A77E5D",
"1 c #8F7772",
"2 c #C79D00",
"3 c #E3B700",
"4 c #FFD600",
"5 c #D7906E",
"6 c #1A5586",
"7 c #286E9F",
"8 c #7F7191",
"9 c #288DCB",
"0 c #858587",
"q c #9F8781",
"w c #928A8C",
"e c #979799",
"r c #B89D92",
"t c #B7A099",
"y c #B7B7BB",
"u c #EEBE93",
"i c #FFE1AF",
"p c gray85",
"a c #D9D9DD",
"s c gray95",
"d c white",
/* pixels */
"&&++&&&&+++&&&&&&&&&&&&&++&&&&++",
"++&&++++&&oooo&&&oooo&&&+8++++88",
"&&&&&&&&&++o1%ooo%1%oooooo&&&+&&",
"&&&&&&&oooooo11%11%ot11%o&&&+&&&",
"&&&&&&++o%1t%%11t%1t1%%ooo&&+&&&",
"&&&&&+8ooo%1t11t111111111%o&+&&&",
"&&&&++o%111111111111t11%oo&&+&&&",
"&&&+8o%1%1t111t1111%1t111%o&+&&&",
"&&+8oooo1t11.1tt%1t1%1%%11%o+&&&",
"&+8&&&o1%t1%-%1t%1t1-%1.-o1%o++&",
"+8&&&o%%o11.;-11-111;-%-;.oo&&&+",
"+8&&&o%oO%1-;;%1;%1%;-..-.%o&&&&",
"8+&&&&o+Ou%uiii%i%%%%1%%;-%%o&&&",
"&8+&&&&+OuuiOOOii1%%%11%;;-%o&&&",
"&&&+&&&+Ouiia pii11ui111;;;oo&&&",
"&&&&+&&+Ouiiw sii1u,i111-;;;o&&&",
"&&&&&++8O5iiXXdii1i,u%11-;;;.&&&",
"&&&++8+8O,ui::iii1u5O%1%%-;;;&++",
"+&++88&&+O5uiiiiiu55%%%%%-;;;.&&",
"++88&&&&&+O,55uuu55,%o%o%o;..-&&",
"+8&&&&&&&+8OOOOOOO==o&o&o+.---&&",
"+&&&&&&&+8&=yaadddaay=++8+8--&&&",
"+&&&++&+8&O23dddayayay=88+8&&&&&",
"+&&+88+8&&&O47da@=yeaay=&&+&&&&&",
"&++8&&+8&&&@479Orr##dayy=&&+&&&&",
"+88&&&+8&&&@0>O<<<q*dayy==&+&&&&",
"+&&&&&&+&&&@#6O<<<$Odayyy=&+&&&&",
"+&&&&&&&+&&O2#O>>$O*day=y=&++&&&",
"+&&&&&&&&+O>>24OOO24day==&&+8+&+",
"+&&&&&&&&&O>>>OOqq<dayy=&&+8&&+&",
"+&&&&&&&&&&OOO&&O<=ay==&++8&&&&&",
"&+&&&&&&&&&+&&&&&OO==+++88&&&&&&"
};
