/* XPM */
static char *_740bcabf3ee4d3cdd90d9f876203eecW4NZvGHaRJ5m0rXd[] = {
/* columns rows colors chars-per-pixel */
"32 32 6 1 ",
"  c #383249",
". c #505469",
"X c #BF4830",
"o c #FDAE35",
"O c #FFD943",
"+ c #7F7191",
/* pixels */
"..  ....   .............  ....  ",
"  ..    ... ............ +    ++",
".........  + .......... +.... ..",
"........ ++oooooooXX... +... ...",
"......  +ooXooooooooXX. .... ...",
"..... ++oXoooooooooooXX .... ...",
"....  +oXooooooooooOOoXX.... ...",
"... ++oXooooooooooOOOOoXX... ...",
".. +..oXoooooXoXoOOOOooXX... ...",
". +...oXoooooXoXOOOOoooXX.. +  .",
" +...oXooooXXXXXXXOoooooXX +... ",
" +...oXoooooXXXXXXXoooooXX+.....",
"+ ...oXoooooXXOOXXXoooooXX......",
".+ ..oXoooooXXOOXXXoooooXX......",
"... .oXooooOXXXXXXooooooXX......",
".... oXoooOOXXXXXXooooooXX......",
".....oXooOOOXXooXXXoooooXX .....",
"...  oXoOOOOXXooXXXoooooXX ...  ",
" .  +oXoOOOoXXXXXXXoooooXX.   ..",
"  ++.oXoOOoXXXXXXXooooooXX ++...",
" +....oXoooooXoXoooooooXX +.....",
" .....oXoooooXoXoooooooXX +.....",
" ...  oXoooooooooooooooXX +.....",
" .. ++ oXoooooooooooooXX.. .....",
".  +.. +oXoooooooooooXX.... ....",
" ++... +.ooXooooooooXX..... ....",
" ...... ...oooooooXX....... ....",
" ....... ....... ..........  ...",
" ........       ........... + . ",
" ...........+ ++  ........ +.. .",
" ........... .....  ....  +.....",
". ......... ........    ++......"
};
