/* XPM */
static char *_e4afa50af1843e9f5cbf94a06931d34vUrbvZO8YXwYmCVR[] = {
/* columns rows colors chars-per-pixel */
"31 32 229 2 ",
"   c #30251F",
".  c #37351D",
"X  c #282917",
"o  c #1A293E",
"O  c #2C252A",
"+  c #2D2C2C",
"@  c #282926",
"#  c #322B2B",
"$  c #38292A",
"%  c #373328",
"&  c #2E2835",
"*  c #342C33",
"=  c #382D35",
"-  c #332A3B",
";  c #382734",
":  c #2F3130",
">  c #323134",
",  c #3C3135",
"<  c #36333B",
"1  c #3D323A",
"2  c #402E2E",
"3  c #49312C",
"4  c #482835",
"5  c #443536",
"6  c #552D38",
"7  c #78393F",
"8  c #6F3424",
"9  c #5B4B18",
"0  c #74423C",
"q  c #79413D",
"w  c #79493A",
"e  c #2C2B44",
"r  c #2C2544",
"t  c #342D4B",
"y  c #3A2C4D",
"u  c #332A47",
"i  c #2E3549",
"p  c #333445",
"a  c #34324A",
"s  c #39334C",
"d  c #363949",
"f  c #3B2E52",
"g  c #352F52",
"h  c #363351",
"j  c #3A3353",
"k  c #3A3458",
"l  c #423356",
"z  c #473458",
"x  c #7A3D48",
"c  c #793E55",
"v  c #433161",
"b  c #3F445A",
"n  c #444B54",
"m  c #4C4953",
"M  c #4B4E5D",
"N  c #454859",
"B  c #4C525B",
"V  c #4E5253",
"C  c #4D4F56",
"Z  c #6F4548",
"A  c #754445",
"S  c #7B4345",
"D  c #7B4944",
"F  c #75424C",
"G  c #7C444B",
"H  c #76484C",
"J  c #7C494D",
"K  c #7E534D",
"L  c #764452",
"P  c #7B4352",
"I  c #7A4954",
"U  c #6B4E53",
"Y  c #4C4D63",
"T  c #4C4D6A",
"R  c #474A68",
"E  c #514E65",
"W  c #524E6B",
"Q  c #5A4969",
"!  c #465265",
"~  c #4C5365",
"^  c #4C546B",
"/  c #4C596A",
"(  c #4B5768",
")  c #535365",
"_  c #53536B",
"`  c #54596D",
"'  c #5C596D",
"]  c #575766",
"[  c #4D5272",
"{  c #535472",
"}  c #595574",
"|  c #565D75",
" . c #595B72",
".. c #53577A",
"X. c #524C79",
"o. c #655874",
"O. c #60586D",
"+. c #56656A",
"@. c #997A10",
"#. c #84473E",
"$. c #954C3C",
"%. c #825037",
"&. c #99553E",
"*. c #8B7B2D",
"=. c #B46D3E",
"-. c #A27C31",
";. c #B46C3B",
":. c #F87C18",
">. c #C9692D",
",. c #C56735",
"<. c #EA7C28",
"1. c #F97D20",
"2. c #824546",
"3. c #814C46",
"4. c #81434C",
"5. c #854C4C",
"6. c #8D4E4A",
"7. c #8D514C",
"8. c #9E5D4C",
"9. c #995849",
"0. c #834355",
"q. c #844B53",
"w. c #8C4C53",
"e. c #874159",
"r. c #914C51",
"t. c #8E5053",
"y. c #9D5554",
"u. c #9C5B53",
"i. c #9D5B5B",
"p. c #995458",
"a. c #A35C4D",
"s. c #A7594A",
"d. c #A25C54",
"f. c #A55759",
"g. c #A45B5A",
"h. c #A95C59",
"j. c #A55953",
"k. c #9F614C",
"l. c #9D6254",
"z. c #A46444",
"x. c #A3614C",
"c. c #AA6547",
"v. c #B36946",
"b. c #BB774A",
"n. c #A46254",
"m. c #AA6453",
"M. c #A26059",
"N. c #AA625A",
"B. c #B56E55",
"V. c #B56E5B",
"C. c #BC7654",
"Z. c #BE7B55",
"A. c #B4725D",
"S. c #BB755C",
"D. c #BE7B5A",
"F. c #B57855",
"G. c #AC7250",
"H. c #9E5860",
"J. c #A25368",
"K. c #8E6361",
"L. c #B2676B",
"P. c #BD7460",
"I. c #BD7E64",
"U. c #C07A54",
"Y. c #C37B5A",
"T. c #C07756",
"R. c #C37962",
"E. c #B19D19",
"W. c #B58E2F",
"Q. c #EE841A",
"!. c #F28218",
"~. c #ED9513",
"^. c #C8A519",
"/. c #D9AD10",
"(. c #E6AC1C",
"). c #EAAD1F",
"_. c #E9B81A",
"`. c #F3B41C",
"'. c #F2B91A",
"]. c #F6B915",
"[. c #E4AC0F",
"{. c #C48F2F",
"}. c #CE9E22",
"|. c #D69534",
" X c #D49331",
".X c #EE8021",
"XX c #CCA923",
"oX c #C7A82A",
"OX c #D6AD28",
"+X c #D1AC2B",
"@X c #E7A925",
"#X c #F3B423",
"$X c #F2BA22",
"%X c #FCB625",
"&X c #E8AE36",
"*X c #F5D60C",
"=X c #EBC41C",
"-X c #E6CB1B",
";X c #ECC814",
":X c #F2C116",
">X c #F3C816",
",X c #ECD419",
"<X c #F4D116",
"1X c #F4D41D",
"2X c #F6D81A",
"3X c #E5D007",
"4X c #EFE217",
"5X c #F5E509",
"6X c #DFC334",
"7X c #EFC125",
"8X c #F5D121",
"9X c #BA8945",
"0X c #BE8359",
"qX c #B38176",
"wX c #C18144",
"eX c #C28154",
"rX c #C2805D",
"tX c #4F5383",
"yX c #595381",
"uX c #76738B",
"iX c #7B748E",
"pX c #757285",
"aX c #7F7993",
"sX c #7C7298",
"dX c #7B6D8E",
"fX c #837294",
"gX c #817897",
"hX c #816B92",
"jX c #8074A4",
/* pixels */
"} E s < _ [ V [ j t k V ` X.` ^ B ] R { ` Y ) ) s a ] ~ ( ~ a ",
"a a _ ) k f < v M O.T p ~ | B ~ [ ~ | ^ T ..[ { y dXy j t z fX",
"~ ` T [ ..^ ] [ O.r k sXu _ )  ._ ( ) _ ~ ` { p aX} E } Y t T ",
") ) [ ^ / n +.! g pXuX} _ j ~ Y ~ tXB ( ..~ V d uX~ _ ~ i / / ",
"{ Y { _ ) ' u f sXW ' E W T g _ } { ] Y _ .._ a Y } W ] a _ ) ",
"/ ^ ( ^ B e jXo.. - + @ - > * : X + + - . O % r ! ~ T W h W { ",
"^ ` n M - 5 $ 9 &Xd.a.c.8.z.Y.C.wXL.H.m.$.N.&X8 3 , = C p Y | ",
"{ N = 4 K P.;.&X[.f.J.9.L.S.T.Y.S.Y.h.h.m.p./.=Xs.8.qX3 5 n ~ ",
"N 6 c G F.b.m.`.(.j.j.m.U.Z.S.D.Y.P.eXm.y.a.@X`.x.x.C.S.F.8 b ",
": Z P S I.C.j.`.).j.y.n.Z.T.R.Y.Y.S.b.d.f.N.@X`.m.d.&.R.rXA.< ",
"+ H x G V.c.g.#X(.f.d.m.C.R.Y.C.T.R.Z.n.g.g.@X`.x.f.a.V.D.0X+ ",
"# S x 4.a.9.g.'.(.f.g.n.V.Y.Y.C.D.R.C.m.g.u.(.'.n.j.h.s.Z.F.+ ",
"* A G 0.u.d.u.>X_.y.u.8.x.B.Z.Z.C.B.z.d.M.u._.'.k.M.y.d.D.P.+ ",
"- A q.P 7.d.l.<X=Xp.9.8.n.m.B.A.P.m.8.d.i.9.-X1Xk.u.u.n.0XA.& ",
"= 0 S P x 7.7.1X-Xq.7.k.g.j.8.u.u.d.u.g.7.2.-X2Xx.u.u.n.eXT.> ",
"+ D q L q.G w 1X-Xx 2.7.w.r.7.t.w.7.w.t.2.S -X,Xa.y.g.V.b.Y.# ",
"= F A 2.J 4.Z 2X;X7 G S H Z I q P G D 0 G c ;X,Xz.i.l.d.c.S.% ",
"@ G S #.D 0.3.1X6X5.I L q G 0.0.4.G P G P w._.*Xa.d.a.a.a.F.O ",
". ,.,.>.>.,.>.].;X^.XXoXOXOX^.oXoXXXoX+X^.}.=X'.|. X|.|.{.|.+ ",
"  <.!.:.Q.Q.:.~.%X:X*X2X<X1X,XE.E.3X<X2X<X:X'.#X'.#X$X`.#X].% ",
"2 :.:.:.Q.!.1.<.~.%X:X;X<X2X4X*.W.5X2X8X7X$X_.].'.`.$X`.`.`., ",
"o &.$.$.6.$.9.$.$.f.n.A.v.{.1X@.W.3XW.G.v.v.v.v.v.v.;.;.v.=.O ",
"& S x J I c x S 0 q.%.u.k.9X2X,X-X,X9Xi.8.8.g.j.g.g.k.u.g.j.& ",
"# w A G L 4.H G H F q q.G G w 5.D w S 0.9.u.H.k.d.i.u.u.l.8.$ ",
"* U F x 5.G G G J A H H x G 0.x J F J F P G J J G 2.j.s.j.K.$ ",
"4 4 x J G L F G x G G x J F G J S G G S G 4.G G F G D D K.2 m ",
"d n < > + + = = , , @ > + + + + : + + > @ > > @ < : O = = ) ] ",
"e | N ( _ ~ ( M r ) ) Y ^ _ ~ ~ s E E E _ _ Y ' M ) ) a p T T ",
"l W ) ) Y _ _ ' } h j f u l l y { { ..^ _ { { R ` ~ W s fXr | ",
"f ^ | / ^ [ ! ^ ~ ^ M  .iXu iXiXe p ) _ Y Y { ( ! ^ t fXQ o.s ",
"t ) ( ! { _ { ( ^ ` _ Y s ] W ] ` _ d i ^ ` Y _ z y iX] _ ! { ",
") p ] _ Y _ ^ ( _ T _ h W _ ^ ^ _ W { W h s s s hXsX^ ^ ( / _ "
};
