/* XPM */
static char *_cc655de2e80412ecf454b5ec3ee809cCXeP8hUbUO7yaNoC[] = {
/* columns rows colors chars-per-pixel */
"32 32 4 1 ",
"  c #302C2E",
". c #5A5353",
"X c #7D7071",
"o c white",
/* pixels */
"                                ",
"  ............   X............  ",
" .............. X.............. ",
" .............. X.............. ",
" .............. X.............. ",
" .............. X.............. ",
" .............. X.............. ",
" .............. X.............. ",
" .............. X.............. ",
" .............. X.............. ",
" .............. X.............. ",
" .............. X.............. ",
" .............. X.............. ",
" .............. X.............. ",
" X............X  X............  ",
"  XXXXXXXXXXXX                  ",
"                  XXXXXXXXXXXX  ",
"  ............    ............X ",
" ..............X .............. ",
" ..............X .............. ",
" ..............X .............. ",
" ..............X .............. ",
" ..............X .............. ",
" ..............X .............. ",
" ..............X .............. ",
" ..............X .............. ",
" ..............X .............. ",
" ..............X .............. ",
" ..............X .............. ",
" ..............X .............. ",
" X............X   ............X ",
"                                "
};
